<?xml version="1.0" encoding="UTF-8"?>
<svg xmlns="http://www.w3.org/2000/svg" xmlns:xlink="http://www.w3.org/1999/xlink" width="153pt" height="153pt" viewBox="0 0 153 153" version="1.1">
<g id="surface1">
<path style="fill:none;stroke-width:0.79701;stroke-linecap:butt;stroke-linejoin:miter;stroke:rgb(79.998779%,79.998779%,79.998779%);stroke-opacity:1;stroke-dasharray:2.25,2.25;stroke-miterlimit:10;" d="M -68.625 -36 L 68.625 -36 M -68.625 0 L 68.625 0 M -68.625 36 L 68.625 36 M -36 -67.5 L -36 67.5 M 0 -67.5 L 0 67.5 M 36 -67.5 L 36 67.5 " transform="matrix(1,0,0,-1,76.5,76.5)"/>
<path style="fill:none;stroke-width:0.79701;stroke-linecap:butt;stroke-linejoin:miter;stroke:rgb(75%,75%,75%);stroke-opacity:1;stroke-miterlimit:10;" d="M -72 0 L 72 0 " transform="matrix(1,0,0,-1,76.5,76.5)"/>
<path style="fill:none;stroke-width:0.79701;stroke-linecap:butt;stroke-linejoin:miter;stroke:rgb(75%,75%,75%);stroke-opacity:1;stroke-miterlimit:10;" d="M 0 -72 L 0 72 " transform="matrix(1,0,0,-1,76.5,76.5)"/>
<path style="fill:none;stroke-width:0.79701;stroke-linecap:round;stroke-linejoin:miter;stroke:rgb(0%,47.451782%,20.783997%);stroke-opacity:1;stroke-miterlimit:10;" d="M 16.199219 64.800781 C 16.199219 64.800781 -16.199219 62.085938 -16.199219 48.601562 C -16.199219 35.113281 16.199219 33.28125 16.199219 16.199219 C 16.199219 -0.882812 -7.210938 9.515625 -16.199219 -12.960938 C -25.191406 -35.4375 -16.199219 -64.800781 -16.199219 -64.800781 " transform="matrix(1,0,0,-1,76.5,76.5)"/>
<path style="fill:none;stroke-width:0.79701;stroke-linecap:round;stroke-linejoin:miter;stroke:rgb(0%,47.451782%,20.783997%);stroke-opacity:1;stroke-miterlimit:10;" d="M -16.199219 -64.800781 C -16.199219 -64.800781 -16.199219 24.300781 -16.199219 24.300781 " transform="matrix(1,0,0,-1,76.5,76.5)"/>
</g>
</svg>
